HIERARCHY
ROOT Hips
{
	OFFSET	0.00	0.00	0.00
	CHANNELS 6 Xposition Yposition Zposition Zrotation Xrotation Yrotation
	JOINT LeftUpLeg
	{
		OFFSET	 0.126116	-0.065224	 0.014019
		CHANNELS 3 Zrotation Xrotation Yrotation
		JOINT LeftLeg
		{
			OFFSET	 0.000000	 0.569914	 0.000000
			CHANNELS 3 Zrotation Xrotation Yrotation
			JOINT LeftFoot
			{
				OFFSET	 0.000000	 0.544423	 0.000000
				CHANNELS 3 Zrotation Xrotation Yrotation
				JOINT LeftToeBase
				{
					OFFSET	 0.000000	 0.207117	 0.000000
					CHANNELS 3 Zrotation Xrotation Yrotation
					End Site
					{
						OFFSET	 0.000000	 0.207117	 0.000000
					}
				}
			}
		}
	}
	JOINT RightUpLeg
	{
		OFFSET	-0.124023	-0.065224	 0.008373
		CHANNELS 3 Zrotation Xrotation Yrotation
		JOINT RightLeg
		{
			OFFSET	 0.000000	 0.570047	 0.000000
			CHANNELS 3 Zrotation Xrotation Yrotation
			JOINT RightFoot
			{
				OFFSET	 0.000000	 0.544354	 0.000000
				CHANNELS 3 Zrotation Xrotation Yrotation
				JOINT RightToeBase
				{
					OFFSET	 0.000000	 0.207540	 0.000000
					CHANNELS 3 Zrotation Xrotation Yrotation
					End Site
					{
						OFFSET	 0.000000	 0.207540	 0.000000
					}
				}
			}
		}
	}
	JOINT Spine
	{
		OFFSET	 0.000184	 0.117403	 0.007763
		CHANNELS 3 Zrotation Xrotation Yrotation
		JOINT Spine1
		{
			OFFSET	 0.000000	 0.137269	 0.000000
			CHANNELS 3 Zrotation Xrotation Yrotation
			JOINT Spine2
			{
				OFFSET	 0.000000	 0.156879	 0.000000
				CHANNELS 3 Zrotation Xrotation Yrotation
				JOINT LeftShoulder
				{
					OFFSET	 0.080501	 0.160143	 0.002496
					CHANNELS 3 Zrotation Xrotation Yrotation
					JOINT LeftArm
					{
						OFFSET	 0.000000	 0.164363	 0.000000
						CHANNELS 3 Zrotation Xrotation Yrotation
						JOINT LeftForeArm
						{
							OFFSET	 0.000000	 0.364576	 0.000000
							CHANNELS 3 Zrotation Xrotation Yrotation
							JOINT LeftHand
							{
								OFFSET	 0.000000	 0.360812	 0.000000
								CHANNELS 3 Zrotation Xrotation Yrotation
								JOINT LeftHandIndex1
								{
									OFFSET	 0.000000	 0.086006	 0.000000
									CHANNELS 3 Zrotation Xrotation Yrotation
									JOINT LeftHandIndex2
									{
										OFFSET	 0.000000	 0.047237	 0.000000
										CHANNELS 3 Zrotation Xrotation Yrotation
										JOINT LeftHandIndex3
										{
											OFFSET	-0.004284	 0.038165	 0.000551
											CHANNELS 3 Zrotation Xrotation Yrotation
											End Site
											{
												OFFSET	-0.004284	 0.038165	 0.000551
											}
										}
									}
								}
							}
						}
					}
				}
				JOINT Neck
				{
					OFFSET	 0.000000	 0.176489	 0.000000
					CHANNELS 3 Zrotation Xrotation Yrotation
					JOINT Head
					{
						OFFSET	 0.000000	 0.077941	 0.001747
						CHANNELS 3 Zrotation Xrotation Yrotation
						End Site
						{
							OFFSET	 0.000000	 0.077941	 0.001747
						}
					}
				}
				JOINT RightShoulder
				{
					OFFSET	-0.080363	 0.159706	-0.000306
					CHANNELS 3 Zrotation Xrotation Yrotation
					JOINT RightArm
					{
						OFFSET	 0.000000	 0.164196	 0.000000
						CHANNELS 3 Zrotation Xrotation Yrotation
						JOINT RightForeArm
						{
							OFFSET	 0.000000	 0.365611	 0.000000
							CHANNELS 3 Zrotation Xrotation Yrotation
							JOINT RightHand
							{
								OFFSET	 0.000000	 0.360648	 0.000000
								CHANNELS 3 Zrotation Xrotation Yrotation
								JOINT RightHandIndex1
								{
									OFFSET	 0.000000	 0.069977	 0.000000
									CHANNELS 3 Zrotation Xrotation Yrotation
									JOINT RightHandIndex2
									{
										OFFSET	 0.000000	 0.052305	 0.000000
										CHANNELS 3 Zrotation Xrotation Yrotation
										JOINT RightHandIndex3
										{
											OFFSET	 0.009002	 0.042196	 0.000782
											CHANNELS 3 Zrotation Xrotation Yrotation
											End Site
											{
												OFFSET	 0.009002	 0.042196	 0.000782
											}
										}
									}
								}
							}
						}
					}
				}
			}
		}
	}
}
MOTION
Frames:    4
Frame Time: 0.03333334
-0.009691	 1.233284	 0.010834	 3.025805	 0.419298	 171.984700	-163.373700	 16.392010	-16.879850	 7.725992	-26.792080	 3.886775	-16.818320	 68.872450	 8.124344	 1.161834	 26.686660	-2.659582	 179.913000	 10.834020	 7.980268	-2.544847	-30.398910	 7.714260	 11.940320	 78.852400	-9.466498	-1.288810	 28.370070	 2.710440	 2.107903	 6.035883	-7.372075	 6.592064	 6.108838	-4.103231	-5.345092	-5.452249	 14.062700	-113.114000	 6.495336	 92.943590	 13.358730	 47.863630	 9.676003	 18.589920	-0.945096	 0.070877	 1.230971	-12.525200	-18.994120	 0.624440	 8.456030	-0.355389	-5.948820	 13.621940	 1.522708	 4.989161	-3.443250	-0.333030	 3.183519	-6.827388	 0.884324	-1.248235	-5.970520	 7.026974	 123.404600	 10.382470	-96.377750	-8.584566	 45.574380	-1.314382	-5.074333	-0.199669	 0.049786	-14.602970	-6.479526	-54.042700	-2.330617	 4.916859	 0.895347	 12.544070	 22.981470	-5.179484	-8.501257	 13.169620	-0.529754
-0.009913	 1.233770	 0.011251	 2.948117	 0.257409	 171.304600	-163.225900	 16.359250	-17.626270	 7.747169	-26.854850	 3.610747	-17.538620	 68.727980	 8.894332	 1.161219	 26.678330	-2.659338	 179.927700	 11.222190	 7.568920	-2.555428	-30.587770	 7.422188	 10.290250	 78.746540	-7.752413	-1.288221	 28.362330	 2.710191	 2.364231	 5.713856	-7.358679	 6.204819	 6.845897	-4.003051	-4.943527	-6.701123	 13.982250	-112.845600	 6.533137	 92.971740	 12.128330	 48.381980	 11.045140	 18.980560	-0.964239	 0.077314	 2.199684	-14.281170	-18.311820	 0.832775	 7.809153	-0.352746	-5.946185	 13.767220	 1.538287	 4.999664	-3.212345	-0.327482	 3.175903	-6.833058	 0.928189	-1.240067	-6.237688	 7.306392	 123.224600	 10.411740	-96.358880	-7.716302	 45.896120	-1.724364	-5.074450	-0.199537	 0.049731	-16.851510	-6.834449	-53.016220	-2.405985	 5.152901	 0.892518	 12.590330	 23.604250	-5.330637	-8.505577	 13.679380	-0.561950
-0.010201	 1.234244	 0.011966	 2.822953	 0.017733	 170.301300	-163.017600	 16.296850	-18.724430	 7.764471	-26.906080	 3.200517	-18.565130	 68.541210	 9.998613	 1.160318	 26.666140	-2.658980	 179.962400	 11.792410	 6.966959	-2.568803	-30.837690	 6.995802	 7.940623	 78.612550	-5.329989	-1.287359	 28.350990	 2.709827	 2.713922	 5.364010	-7.353320	 5.808537	 7.592711	-3.880247	-4.467730	-8.012770	 13.788030	-112.452900	 6.588656	 93.012620	 10.917120	 49.140350	 12.596180	 19.255810	-0.977693	 0.082029	 3.433577	-16.399840	-17.289350	 1.137339	 6.861999	-0.344609	-5.942403	 13.979770	 1.561086	 5.014985	-2.874498	-0.319443	 3.164770	-6.841367	 0.992363	-1.230792	-6.554760	 7.692982	 122.961200	 10.454470	-96.331090	-6.854047	 46.162770	-2.032131	-5.074270	-0.199503	 0.049668	-19.457090	-7.362236	-51.516060	-2.516290	 5.498273	 0.888938	 12.661710	 24.515840	-5.554265	-8.511386	 14.425510	-0.609133
-0.010558	 1.234761	 0.013046	 2.648391	-0.304301	 168.963200	-162.746500	 16.199420	-20.183500	 7.770903	-26.925100	 2.649286	-19.866400	 68.292390	 11.411140	 1.159125	 26.649990	-2.658507	-179.958400	 12.544990	 6.169242	-2.582520	-31.118720	 6.432804	 4.883759	 78.413980	-2.209955	-1.286218	 28.335970	 2.709344	 3.169808	 4.984626	-7.426220	 5.510046	 8.410866	-3.809820	-3.955796	-9.428115	 13.461340	-111.932600	 6.662656	 93.066190	 9.701945	 50.171420	 14.363350	 19.444730	-0.986895	 0.085317	 4.897716	-18.923880	-16.026300	 1.540576	 5.606108	-0.326040	-5.937522	 14.261370	 1.591300	 5.035204	-2.426885	-0.308935	 3.150035	-6.852392	 1.077376	-1.217342	-6.923901	 8.186718	 122.612200	 10.510900	-96.294000	-6.071975	 46.314270	-2.179479	-5.069996	-0.199228	 0.049750	-22.399150	-8.064849	-49.635640	-2.662505	 5.955871	 0.885221	 12.763270	 25.724120	-5.855308	-8.518135	 15.414500	-0.671805
